<svg width="741" height="349" viewBox="0 0 741 349" fill="none" xmlns="http://www.w3.org/2000/svg">
<path d="M490.3 106.472L527.293 164.711L629.755 2.76008C608.819 -1.31751 558.697 2.9728 525.696 52.7548C492.695 102.537 488.348 109.309 490.3 106.472Z" fill="white"/>
<path d="M473.533 73.2313L517.446 2.76008C499.703 0.987214 459.375 2.12185 440 20.8433L473.533 73.2313Z" fill="white"/>
<path d="M484.711 289.964L648.118 34.6717C658.941 20.5774 692.67 -5.85596 741 1.16457L521.704 349L484.711 289.964Z" fill="white"/>
<path d="M16.5128 179H2.45028L28.054 106.273H44.3182L69.9574 179H55.8949L36.4702 121.188H35.902L16.5128 179ZM16.9744 150.484H55.3267V161.067H16.9744V150.484ZM99.5366 179V106.273H112.711V167.956H144.743V179H99.5366ZM176.177 179V106.273H203.45C209.037 106.273 213.725 107.314 217.512 109.398C221.324 111.481 224.2 114.346 226.142 117.991C228.107 121.614 229.089 125.733 229.089 130.349C229.089 135.013 228.107 139.156 226.142 142.778C224.177 146.401 221.277 149.253 217.441 151.337C213.606 153.396 208.883 154.426 203.272 154.426H185.197V143.595H201.497C204.764 143.595 207.439 143.027 209.522 141.891C211.606 140.754 213.145 139.192 214.139 137.203C215.157 135.214 215.666 132.93 215.666 130.349C215.666 127.769 215.157 125.496 214.139 123.531C213.145 121.566 211.594 120.039 209.487 118.95C207.404 117.838 204.717 117.281 201.426 117.281H189.352V179H176.177ZM260.533 179V106.273H273.707V137.061H307.408V106.273H320.618V179H307.408V148.105H273.707V179H260.533ZM364.286 179H350.224L375.827 106.273H392.092L417.731 179H403.668L384.244 121.188H383.675L364.286 179ZM364.748 150.484H403.1V161.067H364.748V150.484Z" fill="white"/>
<path d="M22.169 286V223.455H46.1122C50.6321 223.455 54.3885 224.167 57.3814 225.592C60.3947 226.997 62.6444 228.921 64.1307 231.364C65.6373 233.808 66.3906 236.576 66.3906 239.671C66.3906 242.216 65.902 244.395 64.9247 246.207C63.9474 247.998 62.6342 249.454 60.9851 250.574C59.3359 251.694 57.4934 252.498 55.4574 252.987V253.597C57.6766 253.719 59.8042 254.402 61.8402 255.643C63.8965 256.865 65.5762 258.596 66.8793 260.835C68.1823 263.075 68.8338 265.783 68.8338 268.959C68.8338 272.196 68.05 275.107 66.4822 277.693C64.9145 280.259 62.5528 282.284 59.397 283.771C56.2412 285.257 52.2711 286 47.4865 286H22.169ZM33.4993 276.533H45.6847C49.7974 276.533 52.7597 275.749 54.5717 274.181C56.4041 272.593 57.3203 270.557 57.3203 268.073C57.3203 266.22 56.8622 264.551 55.946 263.065C55.0298 261.558 53.7268 260.377 52.0369 259.522C50.3471 258.647 48.3314 258.209 45.9901 258.209H33.4993V276.533ZM33.4993 250.055H44.7074C46.6619 250.055 48.4231 249.698 49.9908 248.986C51.5585 248.253 52.7902 247.225 53.6861 245.901C54.6023 244.558 55.0604 242.969 55.0604 241.137C55.0604 238.714 54.2053 236.719 52.495 235.151C50.8052 233.584 48.2907 232.8 44.9517 232.8H33.4993V250.055ZM138.322 286H126.229L148.248 223.455H162.235L184.285 286H172.191L155.486 236.281H154.997L138.322 286ZM138.719 261.477H171.702V270.577H138.719V261.477ZM295.521 223.455V286H285.443L255.972 243.397H255.453V286H244.123V223.455H254.262L283.702 266.088H284.252V223.455H295.521ZM359.467 286V223.455H370.797V252.192H371.561L395.962 223.455H409.797L385.609 251.521L410.01 286H396.39L377.73 259.186L370.797 267.371V286H359.467Z" fill="white"/>
</svg>
